<svg xmlns="http://www.w3.org/2000/svg" viewBox="0 0 64 64" role="img" aria-label="pusatdracin tab icon">
  <defs>
    <linearGradient id="bg" x1="8" y1="8" x2="56" y2="56" gradientUnits="userSpaceOnUse">
      <stop offset="0" stop-color="#f0a35e" />
      <stop offset="0.55" stop-color="#f6c667" />
      <stop offset="1" stop-color="#3db3a2" />
    </linearGradient>
    <linearGradient id="stroke" x1="18" y1="16" x2="47" y2="48" gradientUnits="userSpaceOnUse">
      <stop offset="0" stop-color="#1b2632" />
      <stop offset="1" stop-color="#223647" />
    </linearGradient>
  </defs>
  <rect x="6" y="6" width="52" height="52" rx="18" fill="url(#bg)" />
  <path d="M22 16h12.4c9.6 0 16.6 5.6 16.6 13.7S44 43.4 34.4 43.4h-6.8V48H22z" fill="url(#stroke)" />
  <path d="M29 24h3.5c5.2 0 8.9 2.4 8.9 6.2s-3.7 6.2-8.9 6.2H29z" fill="#f6efe5" />
  <path d="M28.2 20.8h5.7c7.2 0 12.6 3.7 12.6 9.4s-5.4 9.4-12.6 9.4h-5.7z" fill="none" stroke="#f6efe5" stroke-linejoin="round" stroke-width="2.1" opacity="0.85" />
  <circle cx="47" cy="17" r="3" fill="#f6efe5" opacity="0.9" />
</svg>
